G04 #@! TF.GenerationSoftware,KiCad,Pcbnew,5.0.0-rc2-unknown-dd436b6~65~ubuntu18.04.1*
G04 #@! TF.CreationDate,2018-06-24T19:34:44+02:00*
G04 #@! TF.ProjectId,ws2812-lvds-receiver-single,7773323831322D6C7664732D72656365,rev?*
G04 #@! TF.SameCoordinates,Original*
G04 #@! TF.FileFunction,Copper,L1,Top,Signal*
G04 #@! TF.FilePolarity,Positive*
%FSLAX46Y46*%
G04 Gerber Fmt 4.6, Leading zero omitted, Abs format (unit mm)*
G04 Created by KiCad (PCBNEW 5.0.0-rc2-unknown-dd436b6~65~ubuntu18.04.1) date Sun Jun 24 19:34:44 2018*
%MOMM*%
%LPD*%
G01*
G04 APERTURE LIST*
G04 #@! TA.AperFunction,Conductor*
%ADD10C,0.100000*%
G04 #@! TD*
G04 #@! TA.AperFunction,SMDPad,CuDef*
%ADD11C,0.875000*%
G04 #@! TD*
G04 #@! TA.AperFunction,ComponentPad*
%ADD12R,1.000000X1.000000*%
G04 #@! TD*
G04 #@! TA.AperFunction,ComponentPad*
%ADD13O,1.000000X1.000000*%
G04 #@! TD*
G04 #@! TA.AperFunction,SMDPad,CuDef*
%ADD14R,0.600000X1.550000*%
G04 #@! TD*
G04 #@! TA.AperFunction,ViaPad*
%ADD15C,0.800000*%
G04 #@! TD*
G04 #@! TA.AperFunction,Conductor*
%ADD16C,0.250000*%
G04 #@! TD*
G04 APERTURE END LIST*
D10*
G04 #@! TO.N,+5V*
G04 #@! TO.C,C1*
G36*
X154277691Y-77851053D02*
X154298926Y-77854203D01*
X154319750Y-77859419D01*
X154339962Y-77866651D01*
X154359368Y-77875830D01*
X154377781Y-77886866D01*
X154395024Y-77899654D01*
X154410930Y-77914070D01*
X154425346Y-77929976D01*
X154438134Y-77947219D01*
X154449170Y-77965632D01*
X154458349Y-77985038D01*
X154465581Y-78005250D01*
X154470797Y-78026074D01*
X154473947Y-78047309D01*
X154475000Y-78068750D01*
X154475000Y-78506250D01*
X154473947Y-78527691D01*
X154470797Y-78548926D01*
X154465581Y-78569750D01*
X154458349Y-78589962D01*
X154449170Y-78609368D01*
X154438134Y-78627781D01*
X154425346Y-78645024D01*
X154410930Y-78660930D01*
X154395024Y-78675346D01*
X154377781Y-78688134D01*
X154359368Y-78699170D01*
X154339962Y-78708349D01*
X154319750Y-78715581D01*
X154298926Y-78720797D01*
X154277691Y-78723947D01*
X154256250Y-78725000D01*
X153743750Y-78725000D01*
X153722309Y-78723947D01*
X153701074Y-78720797D01*
X153680250Y-78715581D01*
X153660038Y-78708349D01*
X153640632Y-78699170D01*
X153622219Y-78688134D01*
X153604976Y-78675346D01*
X153589070Y-78660930D01*
X153574654Y-78645024D01*
X153561866Y-78627781D01*
X153550830Y-78609368D01*
X153541651Y-78589962D01*
X153534419Y-78569750D01*
X153529203Y-78548926D01*
X153526053Y-78527691D01*
X153525000Y-78506250D01*
X153525000Y-78068750D01*
X153526053Y-78047309D01*
X153529203Y-78026074D01*
X153534419Y-78005250D01*
X153541651Y-77985038D01*
X153550830Y-77965632D01*
X153561866Y-77947219D01*
X153574654Y-77929976D01*
X153589070Y-77914070D01*
X153604976Y-77899654D01*
X153622219Y-77886866D01*
X153640632Y-77875830D01*
X153660038Y-77866651D01*
X153680250Y-77859419D01*
X153701074Y-77854203D01*
X153722309Y-77851053D01*
X153743750Y-77850000D01*
X154256250Y-77850000D01*
X154277691Y-77851053D01*
X154277691Y-77851053D01*
G37*
D11*
G04 #@! TD*
G04 #@! TO.P,C1,1*
G04 #@! TO.N,+5V*
X154000000Y-78287500D03*
D10*
G04 #@! TO.N,GND*
G04 #@! TO.C,C1*
G36*
X154277691Y-76276053D02*
X154298926Y-76279203D01*
X154319750Y-76284419D01*
X154339962Y-76291651D01*
X154359368Y-76300830D01*
X154377781Y-76311866D01*
X154395024Y-76324654D01*
X154410930Y-76339070D01*
X154425346Y-76354976D01*
X154438134Y-76372219D01*
X154449170Y-76390632D01*
X154458349Y-76410038D01*
X154465581Y-76430250D01*
X154470797Y-76451074D01*
X154473947Y-76472309D01*
X154475000Y-76493750D01*
X154475000Y-76931250D01*
X154473947Y-76952691D01*
X154470797Y-76973926D01*
X154465581Y-76994750D01*
X154458349Y-77014962D01*
X154449170Y-77034368D01*
X154438134Y-77052781D01*
X154425346Y-77070024D01*
X154410930Y-77085930D01*
X154395024Y-77100346D01*
X154377781Y-77113134D01*
X154359368Y-77124170D01*
X154339962Y-77133349D01*
X154319750Y-77140581D01*
X154298926Y-77145797D01*
X154277691Y-77148947D01*
X154256250Y-77150000D01*
X153743750Y-77150000D01*
X153722309Y-77148947D01*
X153701074Y-77145797D01*
X153680250Y-77140581D01*
X153660038Y-77133349D01*
X153640632Y-77124170D01*
X153622219Y-77113134D01*
X153604976Y-77100346D01*
X153589070Y-77085930D01*
X153574654Y-77070024D01*
X153561866Y-77052781D01*
X153550830Y-77034368D01*
X153541651Y-77014962D01*
X153534419Y-76994750D01*
X153529203Y-76973926D01*
X153526053Y-76952691D01*
X153525000Y-76931250D01*
X153525000Y-76493750D01*
X153526053Y-76472309D01*
X153529203Y-76451074D01*
X153534419Y-76430250D01*
X153541651Y-76410038D01*
X153550830Y-76390632D01*
X153561866Y-76372219D01*
X153574654Y-76354976D01*
X153589070Y-76339070D01*
X153604976Y-76324654D01*
X153622219Y-76311866D01*
X153640632Y-76300830D01*
X153660038Y-76291651D01*
X153680250Y-76284419D01*
X153701074Y-76279203D01*
X153722309Y-76276053D01*
X153743750Y-76275000D01*
X154256250Y-76275000D01*
X154277691Y-76276053D01*
X154277691Y-76276053D01*
G37*
D11*
G04 #@! TD*
G04 #@! TO.P,C1,2*
G04 #@! TO.N,GND*
X154000000Y-76712500D03*
D12*
G04 #@! TO.P,J1,1*
G04 #@! TO.N,+5V*
X143510000Y-81280000D03*
D13*
G04 #@! TO.P,J1,2*
G04 #@! TO.N,Net-(J1-Pad2)*
X143510000Y-80010000D03*
G04 #@! TO.P,J1,3*
G04 #@! TO.N,Net-(J1-Pad3)*
X143510000Y-78740000D03*
G04 #@! TO.P,J1,4*
G04 #@! TO.N,GND*
X143510000Y-77470000D03*
G04 #@! TD*
D12*
G04 #@! TO.P,J2,1*
G04 #@! TO.N,GND*
X156210000Y-78105000D03*
D13*
G04 #@! TO.P,J2,2*
G04 #@! TO.N,Net-(J2-Pad2)*
X156210000Y-79375000D03*
G04 #@! TO.P,J2,3*
G04 #@! TO.N,+5V*
X156210000Y-80645000D03*
G04 #@! TD*
D10*
G04 #@! TO.N,Net-(J1-Pad2)*
G04 #@! TO.C,R1*
G36*
X146027691Y-79726053D02*
X146048926Y-79729203D01*
X146069750Y-79734419D01*
X146089962Y-79741651D01*
X146109368Y-79750830D01*
X146127781Y-79761866D01*
X146145024Y-79774654D01*
X146160930Y-79789070D01*
X146175346Y-79804976D01*
X146188134Y-79822219D01*
X146199170Y-79840632D01*
X146208349Y-79860038D01*
X146215581Y-79880250D01*
X146220797Y-79901074D01*
X146223947Y-79922309D01*
X146225000Y-79943750D01*
X146225000Y-80381250D01*
X146223947Y-80402691D01*
X146220797Y-80423926D01*
X146215581Y-80444750D01*
X146208349Y-80464962D01*
X146199170Y-80484368D01*
X146188134Y-80502781D01*
X146175346Y-80520024D01*
X146160930Y-80535930D01*
X146145024Y-80550346D01*
X146127781Y-80563134D01*
X146109368Y-80574170D01*
X146089962Y-80583349D01*
X146069750Y-80590581D01*
X146048926Y-80595797D01*
X146027691Y-80598947D01*
X146006250Y-80600000D01*
X145493750Y-80600000D01*
X145472309Y-80598947D01*
X145451074Y-80595797D01*
X145430250Y-80590581D01*
X145410038Y-80583349D01*
X145390632Y-80574170D01*
X145372219Y-80563134D01*
X145354976Y-80550346D01*
X145339070Y-80535930D01*
X145324654Y-80520024D01*
X145311866Y-80502781D01*
X145300830Y-80484368D01*
X145291651Y-80464962D01*
X145284419Y-80444750D01*
X145279203Y-80423926D01*
X145276053Y-80402691D01*
X145275000Y-80381250D01*
X145275000Y-79943750D01*
X145276053Y-79922309D01*
X145279203Y-79901074D01*
X145284419Y-79880250D01*
X145291651Y-79860038D01*
X145300830Y-79840632D01*
X145311866Y-79822219D01*
X145324654Y-79804976D01*
X145339070Y-79789070D01*
X145354976Y-79774654D01*
X145372219Y-79761866D01*
X145390632Y-79750830D01*
X145410038Y-79741651D01*
X145430250Y-79734419D01*
X145451074Y-79729203D01*
X145472309Y-79726053D01*
X145493750Y-79725000D01*
X146006250Y-79725000D01*
X146027691Y-79726053D01*
X146027691Y-79726053D01*
G37*
D11*
G04 #@! TD*
G04 #@! TO.P,R1,1*
G04 #@! TO.N,Net-(J1-Pad2)*
X145750000Y-80162500D03*
D10*
G04 #@! TO.N,Net-(J1-Pad3)*
G04 #@! TO.C,R1*
G36*
X146027691Y-78151053D02*
X146048926Y-78154203D01*
X146069750Y-78159419D01*
X146089962Y-78166651D01*
X146109368Y-78175830D01*
X146127781Y-78186866D01*
X146145024Y-78199654D01*
X146160930Y-78214070D01*
X146175346Y-78229976D01*
X146188134Y-78247219D01*
X146199170Y-78265632D01*
X146208349Y-78285038D01*
X146215581Y-78305250D01*
X146220797Y-78326074D01*
X146223947Y-78347309D01*
X146225000Y-78368750D01*
X146225000Y-78806250D01*
X146223947Y-78827691D01*
X146220797Y-78848926D01*
X146215581Y-78869750D01*
X146208349Y-78889962D01*
X146199170Y-78909368D01*
X146188134Y-78927781D01*
X146175346Y-78945024D01*
X146160930Y-78960930D01*
X146145024Y-78975346D01*
X146127781Y-78988134D01*
X146109368Y-78999170D01*
X146089962Y-79008349D01*
X146069750Y-79015581D01*
X146048926Y-79020797D01*
X146027691Y-79023947D01*
X146006250Y-79025000D01*
X145493750Y-79025000D01*
X145472309Y-79023947D01*
X145451074Y-79020797D01*
X145430250Y-79015581D01*
X145410038Y-79008349D01*
X145390632Y-78999170D01*
X145372219Y-78988134D01*
X145354976Y-78975346D01*
X145339070Y-78960930D01*
X145324654Y-78945024D01*
X145311866Y-78927781D01*
X145300830Y-78909368D01*
X145291651Y-78889962D01*
X145284419Y-78869750D01*
X145279203Y-78848926D01*
X145276053Y-78827691D01*
X145275000Y-78806250D01*
X145275000Y-78368750D01*
X145276053Y-78347309D01*
X145279203Y-78326074D01*
X145284419Y-78305250D01*
X145291651Y-78285038D01*
X145300830Y-78265632D01*
X145311866Y-78247219D01*
X145324654Y-78229976D01*
X145339070Y-78214070D01*
X145354976Y-78199654D01*
X145372219Y-78186866D01*
X145390632Y-78175830D01*
X145410038Y-78166651D01*
X145430250Y-78159419D01*
X145451074Y-78154203D01*
X145472309Y-78151053D01*
X145493750Y-78150000D01*
X146006250Y-78150000D01*
X146027691Y-78151053D01*
X146027691Y-78151053D01*
G37*
D11*
G04 #@! TD*
G04 #@! TO.P,R1,2*
G04 #@! TO.N,Net-(J1-Pad3)*
X145750000Y-78587500D03*
D10*
G04 #@! TO.N,Net-(R2-Pad2)*
G04 #@! TO.C,R2*
G36*
X154277691Y-79776053D02*
X154298926Y-79779203D01*
X154319750Y-79784419D01*
X154339962Y-79791651D01*
X154359368Y-79800830D01*
X154377781Y-79811866D01*
X154395024Y-79824654D01*
X154410930Y-79839070D01*
X154425346Y-79854976D01*
X154438134Y-79872219D01*
X154449170Y-79890632D01*
X154458349Y-79910038D01*
X154465581Y-79930250D01*
X154470797Y-79951074D01*
X154473947Y-79972309D01*
X154475000Y-79993750D01*
X154475000Y-80431250D01*
X154473947Y-80452691D01*
X154470797Y-80473926D01*
X154465581Y-80494750D01*
X154458349Y-80514962D01*
X154449170Y-80534368D01*
X154438134Y-80552781D01*
X154425346Y-80570024D01*
X154410930Y-80585930D01*
X154395024Y-80600346D01*
X154377781Y-80613134D01*
X154359368Y-80624170D01*
X154339962Y-80633349D01*
X154319750Y-80640581D01*
X154298926Y-80645797D01*
X154277691Y-80648947D01*
X154256250Y-80650000D01*
X153743750Y-80650000D01*
X153722309Y-80648947D01*
X153701074Y-80645797D01*
X153680250Y-80640581D01*
X153660038Y-80633349D01*
X153640632Y-80624170D01*
X153622219Y-80613134D01*
X153604976Y-80600346D01*
X153589070Y-80585930D01*
X153574654Y-80570024D01*
X153561866Y-80552781D01*
X153550830Y-80534368D01*
X153541651Y-80514962D01*
X153534419Y-80494750D01*
X153529203Y-80473926D01*
X153526053Y-80452691D01*
X153525000Y-80431250D01*
X153525000Y-79993750D01*
X153526053Y-79972309D01*
X153529203Y-79951074D01*
X153534419Y-79930250D01*
X153541651Y-79910038D01*
X153550830Y-79890632D01*
X153561866Y-79872219D01*
X153574654Y-79854976D01*
X153589070Y-79839070D01*
X153604976Y-79824654D01*
X153622219Y-79811866D01*
X153640632Y-79800830D01*
X153660038Y-79791651D01*
X153680250Y-79784419D01*
X153701074Y-79779203D01*
X153722309Y-79776053D01*
X153743750Y-79775000D01*
X154256250Y-79775000D01*
X154277691Y-79776053D01*
X154277691Y-79776053D01*
G37*
D11*
G04 #@! TD*
G04 #@! TO.P,R2,2*
G04 #@! TO.N,Net-(R2-Pad2)*
X154000000Y-80212500D03*
D10*
G04 #@! TO.N,Net-(J2-Pad2)*
G04 #@! TO.C,R2*
G36*
X154277691Y-81351053D02*
X154298926Y-81354203D01*
X154319750Y-81359419D01*
X154339962Y-81366651D01*
X154359368Y-81375830D01*
X154377781Y-81386866D01*
X154395024Y-81399654D01*
X154410930Y-81414070D01*
X154425346Y-81429976D01*
X154438134Y-81447219D01*
X154449170Y-81465632D01*
X154458349Y-81485038D01*
X154465581Y-81505250D01*
X154470797Y-81526074D01*
X154473947Y-81547309D01*
X154475000Y-81568750D01*
X154475000Y-82006250D01*
X154473947Y-82027691D01*
X154470797Y-82048926D01*
X154465581Y-82069750D01*
X154458349Y-82089962D01*
X154449170Y-82109368D01*
X154438134Y-82127781D01*
X154425346Y-82145024D01*
X154410930Y-82160930D01*
X154395024Y-82175346D01*
X154377781Y-82188134D01*
X154359368Y-82199170D01*
X154339962Y-82208349D01*
X154319750Y-82215581D01*
X154298926Y-82220797D01*
X154277691Y-82223947D01*
X154256250Y-82225000D01*
X153743750Y-82225000D01*
X153722309Y-82223947D01*
X153701074Y-82220797D01*
X153680250Y-82215581D01*
X153660038Y-82208349D01*
X153640632Y-82199170D01*
X153622219Y-82188134D01*
X153604976Y-82175346D01*
X153589070Y-82160930D01*
X153574654Y-82145024D01*
X153561866Y-82127781D01*
X153550830Y-82109368D01*
X153541651Y-82089962D01*
X153534419Y-82069750D01*
X153529203Y-82048926D01*
X153526053Y-82027691D01*
X153525000Y-82006250D01*
X153525000Y-81568750D01*
X153526053Y-81547309D01*
X153529203Y-81526074D01*
X153534419Y-81505250D01*
X153541651Y-81485038D01*
X153550830Y-81465632D01*
X153561866Y-81447219D01*
X153574654Y-81429976D01*
X153589070Y-81414070D01*
X153604976Y-81399654D01*
X153622219Y-81386866D01*
X153640632Y-81375830D01*
X153660038Y-81366651D01*
X153680250Y-81359419D01*
X153701074Y-81354203D01*
X153722309Y-81351053D01*
X153743750Y-81350000D01*
X154256250Y-81350000D01*
X154277691Y-81351053D01*
X154277691Y-81351053D01*
G37*
D11*
G04 #@! TD*
G04 #@! TO.P,R2,1*
G04 #@! TO.N,Net-(J2-Pad2)*
X154000000Y-81787500D03*
D14*
G04 #@! TO.P,U1,1*
G04 #@! TO.N,+5V*
X151765000Y-76675000D03*
G04 #@! TO.P,U1,2*
G04 #@! TO.N,Net-(R2-Pad2)*
X150495000Y-76675000D03*
G04 #@! TO.P,U1,3*
G04 #@! TO.N,Net-(J1-Pad2)*
X149225000Y-76675000D03*
G04 #@! TO.P,U1,4*
G04 #@! TO.N,Net-(J1-Pad3)*
X147955000Y-76675000D03*
G04 #@! TO.P,U1,5*
G04 #@! TO.N,GND*
X147955000Y-82075000D03*
G04 #@! TO.P,U1,6*
G04 #@! TO.N,Net-(U1-Pad6)*
X149225000Y-82075000D03*
G04 #@! TO.P,U1,7*
G04 #@! TO.N,Net-(U1-Pad7)*
X150495000Y-82075000D03*
G04 #@! TO.P,U1,8*
G04 #@! TO.N,Net-(U1-Pad8)*
X151765000Y-82075000D03*
G04 #@! TD*
D15*
G04 #@! TO.N,GND*
X150000000Y-78750000D03*
G04 #@! TD*
D16*
G04 #@! TO.N,+5V*
X154000000Y-78287500D02*
X152037500Y-78287500D01*
X151765000Y-78015000D02*
X151765000Y-76675000D01*
X152037500Y-78287500D02*
X151765000Y-78015000D01*
X156210000Y-80645000D02*
X155645000Y-80645000D01*
X155645000Y-80645000D02*
X155200000Y-80200000D01*
X155200000Y-80200000D02*
X155200000Y-78600000D01*
X154887500Y-78287500D02*
X154000000Y-78287500D01*
X155200000Y-78600000D02*
X154887500Y-78287500D01*
G04 #@! TO.N,GND*
X155567500Y-76712500D02*
X156210000Y-77355000D01*
X156210000Y-77355000D02*
X156210000Y-78105000D01*
X154000000Y-76712500D02*
X155567500Y-76712500D01*
X147955000Y-82075000D02*
X147955000Y-80795000D01*
X147955000Y-80795000D02*
X150000000Y-78750000D01*
G04 #@! TO.N,Net-(J1-Pad2)*
X145597500Y-80010000D02*
X145750000Y-80162500D01*
X143510000Y-80010000D02*
X145597500Y-80010000D01*
X145750000Y-80162500D02*
X147337500Y-80162500D01*
X149225000Y-78275000D02*
X149225000Y-76675000D01*
X147337500Y-80162500D02*
X149225000Y-78275000D01*
G04 #@! TO.N,Net-(J1-Pad3)*
X145597500Y-78740000D02*
X145750000Y-78587500D01*
X143510000Y-78740000D02*
X145597500Y-78740000D01*
X145750000Y-78587500D02*
X147412500Y-78587500D01*
X147955000Y-78045000D02*
X147955000Y-76675000D01*
X147412500Y-78587500D02*
X147955000Y-78045000D01*
G04 #@! TO.N,Net-(J2-Pad2)*
X156462500Y-81787500D02*
X154000000Y-81787500D01*
X157250000Y-79707894D02*
X157250000Y-81000000D01*
X156917106Y-79375000D02*
X157250000Y-79707894D01*
X157250000Y-81000000D02*
X156462500Y-81787500D01*
X156210000Y-79375000D02*
X156917106Y-79375000D01*
G04 #@! TO.N,Net-(R2-Pad2)*
X153425000Y-80212500D02*
X154000000Y-80212500D01*
X153007500Y-80212500D02*
X153425000Y-80212500D01*
X150495000Y-77700000D02*
X153007500Y-80212500D01*
X150495000Y-76675000D02*
X150495000Y-77700000D01*
G04 #@! TD*
M02*
