G04 #@! TF.GenerationSoftware,KiCad,Pcbnew,5.0.0-rc2-unknown-dd436b6~65~ubuntu18.04.1*
G04 #@! TF.CreationDate,2018-06-24T19:34:44+02:00*
G04 #@! TF.ProjectId,ws2812-lvds-receiver-single,7773323831322D6C7664732D72656365,rev?*
G04 #@! TF.SameCoordinates,Original*
G04 #@! TF.FileFunction,Legend,Bot*
G04 #@! TF.FilePolarity,Positive*
%FSLAX46Y46*%
G04 Gerber Fmt 4.6, Leading zero omitted, Abs format (unit mm)*
G04 Created by KiCad (PCBNEW 5.0.0-rc2-unknown-dd436b6~65~ubuntu18.04.1) date Sun Jun 24 19:34:44 2018*
%MOMM*%
%LPD*%
G01*
G04 APERTURE LIST*
%ADD10C,0.150000*%
G04 APERTURE END LIST*
D10*
X156811071Y-75761904D02*
X157192023Y-75761904D01*
X157230119Y-76142857D01*
X157192023Y-76104761D01*
X157115833Y-76066666D01*
X156925357Y-76066666D01*
X156849166Y-76104761D01*
X156811071Y-76142857D01*
X156772976Y-76219047D01*
X156772976Y-76409523D01*
X156811071Y-76485714D01*
X156849166Y-76523809D01*
X156925357Y-76561904D01*
X157115833Y-76561904D01*
X157192023Y-76523809D01*
X157230119Y-76485714D01*
X156544404Y-75761904D02*
X156277738Y-76561904D01*
X156011071Y-75761904D01*
X154753928Y-76561904D02*
X155134880Y-76561904D01*
X155134880Y-75761904D01*
X154601547Y-75761904D02*
X154334880Y-76561904D01*
X154068214Y-75761904D01*
X153801547Y-76561904D02*
X153801547Y-75761904D01*
X153611071Y-75761904D01*
X153496785Y-75800000D01*
X153420595Y-75876190D01*
X153382500Y-75952380D01*
X153344404Y-76104761D01*
X153344404Y-76219047D01*
X153382500Y-76371428D01*
X153420595Y-76447619D01*
X153496785Y-76523809D01*
X153611071Y-76561904D01*
X153801547Y-76561904D01*
X153039642Y-76523809D02*
X152925357Y-76561904D01*
X152734880Y-76561904D01*
X152658690Y-76523809D01*
X152620595Y-76485714D01*
X152582500Y-76409523D01*
X152582500Y-76333333D01*
X152620595Y-76257142D01*
X152658690Y-76219047D01*
X152734880Y-76180952D01*
X152887261Y-76142857D01*
X152963452Y-76104761D01*
X153001547Y-76066666D01*
X153039642Y-75990476D01*
X153039642Y-75914285D01*
X153001547Y-75838095D01*
X152963452Y-75800000D01*
X152887261Y-75761904D01*
X152696785Y-75761904D01*
X152582500Y-75800000D01*
X151172976Y-76561904D02*
X151439642Y-76180952D01*
X151630119Y-76561904D02*
X151630119Y-75761904D01*
X151325357Y-75761904D01*
X151249166Y-75800000D01*
X151211071Y-75838095D01*
X151172976Y-75914285D01*
X151172976Y-76028571D01*
X151211071Y-76104761D01*
X151249166Y-76142857D01*
X151325357Y-76180952D01*
X151630119Y-76180952D01*
X150525357Y-76523809D02*
X150601547Y-76561904D01*
X150753928Y-76561904D01*
X150830119Y-76523809D01*
X150868214Y-76447619D01*
X150868214Y-76142857D01*
X150830119Y-76066666D01*
X150753928Y-76028571D01*
X150601547Y-76028571D01*
X150525357Y-76066666D01*
X150487261Y-76142857D01*
X150487261Y-76219047D01*
X150868214Y-76295238D01*
X149801547Y-76523809D02*
X149877738Y-76561904D01*
X150030119Y-76561904D01*
X150106309Y-76523809D01*
X150144404Y-76485714D01*
X150182500Y-76409523D01*
X150182500Y-76180952D01*
X150144404Y-76104761D01*
X150106309Y-76066666D01*
X150030119Y-76028571D01*
X149877738Y-76028571D01*
X149801547Y-76066666D01*
X149153928Y-76523809D02*
X149230119Y-76561904D01*
X149382500Y-76561904D01*
X149458690Y-76523809D01*
X149496785Y-76447619D01*
X149496785Y-76142857D01*
X149458690Y-76066666D01*
X149382500Y-76028571D01*
X149230119Y-76028571D01*
X149153928Y-76066666D01*
X149115833Y-76142857D01*
X149115833Y-76219047D01*
X149496785Y-76295238D01*
X148772976Y-76561904D02*
X148772976Y-76028571D01*
X148772976Y-75761904D02*
X148811071Y-75800000D01*
X148772976Y-75838095D01*
X148734880Y-75800000D01*
X148772976Y-75761904D01*
X148772976Y-75838095D01*
X148468214Y-76028571D02*
X148277738Y-76561904D01*
X148087261Y-76028571D01*
X147477738Y-76523809D02*
X147553928Y-76561904D01*
X147706309Y-76561904D01*
X147782500Y-76523809D01*
X147820595Y-76447619D01*
X147820595Y-76142857D01*
X147782500Y-76066666D01*
X147706309Y-76028571D01*
X147553928Y-76028571D01*
X147477738Y-76066666D01*
X147439642Y-76142857D01*
X147439642Y-76219047D01*
X147820595Y-76295238D01*
X147096785Y-76561904D02*
X147096785Y-76028571D01*
X147096785Y-76180952D02*
X147058690Y-76104761D01*
X147020595Y-76066666D01*
X146944404Y-76028571D01*
X146868214Y-76028571D01*
X146068214Y-76028571D02*
X145877738Y-76561904D01*
X145687261Y-76028571D01*
X144963452Y-76561904D02*
X145420595Y-76561904D01*
X145192023Y-76561904D02*
X145192023Y-75761904D01*
X145268214Y-75876190D01*
X145344404Y-75952380D01*
X145420595Y-75990476D01*
X144620595Y-76485714D02*
X144582500Y-76523809D01*
X144620595Y-76561904D01*
X144658690Y-76523809D01*
X144620595Y-76485714D01*
X144620595Y-76561904D01*
X144087261Y-75761904D02*
X144011071Y-75761904D01*
X143934880Y-75800000D01*
X143896785Y-75838095D01*
X143858690Y-75914285D01*
X143820595Y-76066666D01*
X143820595Y-76257142D01*
X143858690Y-76409523D01*
X143896785Y-76485714D01*
X143934880Y-76523809D01*
X144011071Y-76561904D01*
X144087261Y-76561904D01*
X144163452Y-76523809D01*
X144201547Y-76485714D01*
X144239642Y-76409523D01*
X144277738Y-76257142D01*
X144277738Y-76066666D01*
X144239642Y-75914285D01*
X144201547Y-75838095D01*
X144163452Y-75800000D01*
X144087261Y-75761904D01*
X157192023Y-82911904D02*
X157192023Y-82111904D01*
X156849166Y-82911904D02*
X156849166Y-82492857D01*
X156887261Y-82416666D01*
X156963452Y-82378571D01*
X157077738Y-82378571D01*
X157153928Y-82416666D01*
X157192023Y-82454761D01*
X156582500Y-82378571D02*
X156277738Y-82378571D01*
X156468214Y-82111904D02*
X156468214Y-82797619D01*
X156430119Y-82873809D01*
X156353928Y-82911904D01*
X156277738Y-82911904D01*
X156125357Y-82378571D02*
X155820595Y-82378571D01*
X156011071Y-82111904D02*
X156011071Y-82797619D01*
X155972976Y-82873809D01*
X155896785Y-82911904D01*
X155820595Y-82911904D01*
X155553928Y-82378571D02*
X155553928Y-83178571D01*
X155553928Y-82416666D02*
X155477738Y-82378571D01*
X155325357Y-82378571D01*
X155249166Y-82416666D01*
X155211071Y-82454761D01*
X155172976Y-82530952D01*
X155172976Y-82759523D01*
X155211071Y-82835714D01*
X155249166Y-82873809D01*
X155325357Y-82911904D01*
X155477738Y-82911904D01*
X155553928Y-82873809D01*
X154868214Y-82873809D02*
X154792023Y-82911904D01*
X154639642Y-82911904D01*
X154563452Y-82873809D01*
X154525357Y-82797619D01*
X154525357Y-82759523D01*
X154563452Y-82683333D01*
X154639642Y-82645238D01*
X154753928Y-82645238D01*
X154830119Y-82607142D01*
X154868214Y-82530952D01*
X154868214Y-82492857D01*
X154830119Y-82416666D01*
X154753928Y-82378571D01*
X154639642Y-82378571D01*
X154563452Y-82416666D01*
X154182500Y-82835714D02*
X154144404Y-82873809D01*
X154182500Y-82911904D01*
X154220595Y-82873809D01*
X154182500Y-82835714D01*
X154182500Y-82911904D01*
X154182500Y-82416666D02*
X154144404Y-82454761D01*
X154182500Y-82492857D01*
X154220595Y-82454761D01*
X154182500Y-82416666D01*
X154182500Y-82492857D01*
X153230119Y-82073809D02*
X153915833Y-83102380D01*
X152392023Y-82073809D02*
X153077738Y-83102380D01*
X152125357Y-82911904D02*
X152125357Y-82111904D01*
X152125357Y-82416666D02*
X152049166Y-82378571D01*
X151896785Y-82378571D01*
X151820595Y-82416666D01*
X151782500Y-82454761D01*
X151744404Y-82530952D01*
X151744404Y-82759523D01*
X151782500Y-82835714D01*
X151820595Y-82873809D01*
X151896785Y-82911904D01*
X152049166Y-82911904D01*
X152125357Y-82873809D01*
X151477738Y-82378571D02*
X151287261Y-82911904D01*
X151096785Y-82378571D02*
X151287261Y-82911904D01*
X151363452Y-83102380D01*
X151401547Y-83140476D01*
X151477738Y-83178571D01*
X150906309Y-82378571D02*
X150601547Y-82378571D01*
X150792023Y-82111904D02*
X150792023Y-82797619D01*
X150753928Y-82873809D01*
X150677738Y-82911904D01*
X150601547Y-82911904D01*
X150030119Y-82873809D02*
X150106309Y-82911904D01*
X150258690Y-82911904D01*
X150334880Y-82873809D01*
X150372976Y-82797619D01*
X150372976Y-82492857D01*
X150334880Y-82416666D01*
X150258690Y-82378571D01*
X150106309Y-82378571D01*
X150030119Y-82416666D01*
X149992023Y-82492857D01*
X149992023Y-82569047D01*
X150372976Y-82645238D01*
X149725357Y-82378571D02*
X149572976Y-82911904D01*
X149420595Y-82530952D01*
X149268214Y-82911904D01*
X149115833Y-82378571D01*
X148506309Y-82873809D02*
X148582500Y-82911904D01*
X148734880Y-82911904D01*
X148811071Y-82873809D01*
X148849166Y-82797619D01*
X148849166Y-82492857D01*
X148811071Y-82416666D01*
X148734880Y-82378571D01*
X148582500Y-82378571D01*
X148506309Y-82416666D01*
X148468214Y-82492857D01*
X148468214Y-82569047D01*
X148849166Y-82645238D01*
X148125357Y-82911904D02*
X148125357Y-82378571D01*
X148125357Y-82530952D02*
X148087261Y-82454761D01*
X148049166Y-82416666D01*
X147972976Y-82378571D01*
X147896785Y-82378571D01*
X147630119Y-82911904D02*
X147630119Y-82111904D01*
X147553928Y-82607142D02*
X147325357Y-82911904D01*
X147325357Y-82378571D02*
X147630119Y-82683333D01*
X146982500Y-82835714D02*
X146944404Y-82873809D01*
X146982500Y-82911904D01*
X147020595Y-82873809D01*
X146982500Y-82835714D01*
X146982500Y-82911904D01*
X146487261Y-82911904D02*
X146563452Y-82873809D01*
X146601547Y-82835714D01*
X146639642Y-82759523D01*
X146639642Y-82530952D01*
X146601547Y-82454761D01*
X146563452Y-82416666D01*
X146487261Y-82378571D01*
X146372976Y-82378571D01*
X146296785Y-82416666D01*
X146258690Y-82454761D01*
X146220595Y-82530952D01*
X146220595Y-82759523D01*
X146258690Y-82835714D01*
X146296785Y-82873809D01*
X146372976Y-82911904D01*
X146487261Y-82911904D01*
X145877738Y-82911904D02*
X145877738Y-82378571D01*
X145877738Y-82530952D02*
X145839642Y-82454761D01*
X145801547Y-82416666D01*
X145725357Y-82378571D01*
X145649166Y-82378571D01*
X145039642Y-82378571D02*
X145039642Y-83026190D01*
X145077738Y-83102380D01*
X145115833Y-83140476D01*
X145192023Y-83178571D01*
X145306309Y-83178571D01*
X145382500Y-83140476D01*
X145039642Y-82873809D02*
X145115833Y-82911904D01*
X145268214Y-82911904D01*
X145344404Y-82873809D01*
X145382500Y-82835714D01*
X145420595Y-82759523D01*
X145420595Y-82530952D01*
X145382500Y-82454761D01*
X145344404Y-82416666D01*
X145268214Y-82378571D01*
X145115833Y-82378571D01*
X145039642Y-82416666D01*
X144087261Y-82073809D02*
X144772976Y-83102380D01*
X154740976Y-77825000D02*
X154817166Y-77791666D01*
X154931452Y-77791666D01*
X155045738Y-77825000D01*
X155121928Y-77891666D01*
X155160023Y-77958333D01*
X155198119Y-78091666D01*
X155198119Y-78191666D01*
X155160023Y-78325000D01*
X155121928Y-78391666D01*
X155045738Y-78458333D01*
X154931452Y-78491666D01*
X154855261Y-78491666D01*
X154740976Y-78458333D01*
X154702880Y-78425000D01*
X154702880Y-78191666D01*
X154855261Y-78191666D01*
X154360023Y-78491666D02*
X154360023Y-77791666D01*
X153902880Y-78491666D01*
X153902880Y-77791666D01*
X153521928Y-78491666D02*
X153521928Y-77791666D01*
X153331452Y-77791666D01*
X153217166Y-77825000D01*
X153140976Y-77891666D01*
X153102880Y-77958333D01*
X153064785Y-78091666D01*
X153064785Y-78191666D01*
X153102880Y-78325000D01*
X153140976Y-78391666D01*
X153217166Y-78458333D01*
X153331452Y-78491666D01*
X153521928Y-78491666D01*
X155160023Y-79691666D02*
X155160023Y-78991666D01*
X154969547Y-78991666D01*
X154855261Y-79025000D01*
X154779071Y-79091666D01*
X154740976Y-79158333D01*
X154702880Y-79291666D01*
X154702880Y-79391666D01*
X154740976Y-79525000D01*
X154779071Y-79591666D01*
X154855261Y-79658333D01*
X154969547Y-79691666D01*
X155160023Y-79691666D01*
X154207642Y-78991666D02*
X154055261Y-78991666D01*
X153979071Y-79025000D01*
X153902880Y-79091666D01*
X153864785Y-79225000D01*
X153864785Y-79458333D01*
X153902880Y-79591666D01*
X153979071Y-79658333D01*
X154055261Y-79691666D01*
X154207642Y-79691666D01*
X154283833Y-79658333D01*
X154360023Y-79591666D01*
X154398119Y-79458333D01*
X154398119Y-79225000D01*
X154360023Y-79091666D01*
X154283833Y-79025000D01*
X154207642Y-78991666D01*
X153521928Y-78991666D02*
X153521928Y-79558333D01*
X153483833Y-79625000D01*
X153445738Y-79658333D01*
X153369547Y-79691666D01*
X153217166Y-79691666D01*
X153140976Y-79658333D01*
X153102880Y-79625000D01*
X153064785Y-79558333D01*
X153064785Y-78991666D01*
X152798119Y-78991666D02*
X152340976Y-78991666D01*
X152569547Y-79691666D02*
X152569547Y-78991666D01*
X155160023Y-80625000D02*
X154550500Y-80625000D01*
X154855261Y-80891666D02*
X154855261Y-80358333D01*
X153788595Y-80191666D02*
X154169547Y-80191666D01*
X154207642Y-80525000D01*
X154169547Y-80491666D01*
X154093357Y-80458333D01*
X153902880Y-80458333D01*
X153826690Y-80491666D01*
X153788595Y-80525000D01*
X153750500Y-80591666D01*
X153750500Y-80758333D01*
X153788595Y-80825000D01*
X153826690Y-80858333D01*
X153902880Y-80891666D01*
X154093357Y-80891666D01*
X154169547Y-80858333D01*
X154207642Y-80825000D01*
X153521928Y-80191666D02*
X153255261Y-80891666D01*
X152988595Y-80191666D01*
X146198071Y-77225000D02*
X146274261Y-77191666D01*
X146388547Y-77191666D01*
X146502833Y-77225000D01*
X146579023Y-77291666D01*
X146617119Y-77358333D01*
X146655214Y-77491666D01*
X146655214Y-77591666D01*
X146617119Y-77725000D01*
X146579023Y-77791666D01*
X146502833Y-77858333D01*
X146388547Y-77891666D01*
X146312357Y-77891666D01*
X146198071Y-77858333D01*
X146159976Y-77825000D01*
X146159976Y-77591666D01*
X146312357Y-77591666D01*
X145817119Y-77891666D02*
X145817119Y-77191666D01*
X145359976Y-77891666D01*
X145359976Y-77191666D01*
X144979023Y-77891666D02*
X144979023Y-77191666D01*
X144788547Y-77191666D01*
X144674261Y-77225000D01*
X144598071Y-77291666D01*
X144559976Y-77358333D01*
X144521880Y-77491666D01*
X144521880Y-77591666D01*
X144559976Y-77725000D01*
X144598071Y-77791666D01*
X144674261Y-77858333D01*
X144788547Y-77891666D01*
X144979023Y-77891666D01*
X145969500Y-79091666D02*
X145969500Y-78391666D01*
X145779023Y-78391666D01*
X145664738Y-78425000D01*
X145588547Y-78491666D01*
X145550452Y-78558333D01*
X145512357Y-78691666D01*
X145512357Y-78791666D01*
X145550452Y-78925000D01*
X145588547Y-78991666D01*
X145664738Y-79058333D01*
X145779023Y-79091666D01*
X145969500Y-79091666D01*
X145169500Y-78825000D02*
X144559976Y-78825000D01*
X145969500Y-80291666D02*
X145969500Y-79591666D01*
X145779023Y-79591666D01*
X145664738Y-79625000D01*
X145588547Y-79691666D01*
X145550452Y-79758333D01*
X145512357Y-79891666D01*
X145512357Y-79991666D01*
X145550452Y-80125000D01*
X145588547Y-80191666D01*
X145664738Y-80258333D01*
X145779023Y-80291666D01*
X145969500Y-80291666D01*
X145169500Y-80025000D02*
X144559976Y-80025000D01*
X144864738Y-80291666D02*
X144864738Y-79758333D01*
X146617119Y-81225000D02*
X146007595Y-81225000D01*
X146312357Y-81491666D02*
X146312357Y-80958333D01*
X145245690Y-80791666D02*
X145626642Y-80791666D01*
X145664738Y-81125000D01*
X145626642Y-81091666D01*
X145550452Y-81058333D01*
X145359976Y-81058333D01*
X145283785Y-81091666D01*
X145245690Y-81125000D01*
X145207595Y-81191666D01*
X145207595Y-81358333D01*
X145245690Y-81425000D01*
X145283785Y-81458333D01*
X145359976Y-81491666D01*
X145550452Y-81491666D01*
X145626642Y-81458333D01*
X145664738Y-81425000D01*
X144979023Y-80791666D02*
X144712357Y-81491666D01*
X144445690Y-80791666D01*
M02*
