G04 #@! TF.GenerationSoftware,KiCad,Pcbnew,5.0.0-rc2-unknown-dd436b6~65~ubuntu18.04.1*
G04 #@! TF.CreationDate,2018-06-24T19:34:44+02:00*
G04 #@! TF.ProjectId,ws2812-lvds-receiver-single,7773323831322D6C7664732D72656365,rev?*
G04 #@! TF.SameCoordinates,Original*
G04 #@! TF.FileFunction,Legend,Top*
G04 #@! TF.FilePolarity,Positive*
%FSLAX46Y46*%
G04 Gerber Fmt 4.6, Leading zero omitted, Abs format (unit mm)*
G04 Created by KiCad (PCBNEW 5.0.0-rc2-unknown-dd436b6~65~ubuntu18.04.1) date Sun Jun 24 19:34:44 2018*
%MOMM*%
%LPD*%
G01*
G04 APERTURE LIST*
%ADD10C,0.120000*%
%ADD11C,0.150000*%
G04 APERTURE END LIST*
D10*
G04 #@! TO.C,C1*
X153490000Y-77662779D02*
X153490000Y-77337221D01*
X154510000Y-77662779D02*
X154510000Y-77337221D01*
G04 #@! TO.C,J1*
X142750000Y-81975000D02*
X141950000Y-81975000D01*
X141950000Y-81975000D02*
X141950000Y-76775000D01*
X141950000Y-76775000D02*
X143070000Y-76775000D01*
X143070000Y-76775000D02*
X143070000Y-76850323D01*
X141950000Y-81540000D02*
X137950000Y-81540000D01*
X137950000Y-81540000D02*
X137950000Y-81020000D01*
X137950000Y-81020000D02*
X141950000Y-81020000D01*
X141950000Y-81480000D02*
X137950000Y-81480000D01*
X141950000Y-81360000D02*
X137950000Y-81360000D01*
X141950000Y-81240000D02*
X137950000Y-81240000D01*
X141950000Y-81120000D02*
X137950000Y-81120000D01*
X142750000Y-80645000D02*
X141950000Y-80645000D01*
X141950000Y-80270000D02*
X137950000Y-80270000D01*
X137950000Y-80270000D02*
X137950000Y-79750000D01*
X137950000Y-79750000D02*
X141950000Y-79750000D01*
X143070000Y-79375000D02*
X141950000Y-79375000D01*
X143070000Y-79390323D02*
X143070000Y-79359677D01*
X141950000Y-79000000D02*
X137950000Y-79000000D01*
X137950000Y-79000000D02*
X137950000Y-78480000D01*
X137950000Y-78480000D02*
X141950000Y-78480000D01*
X143070000Y-78105000D02*
X141950000Y-78105000D01*
X143070000Y-78120323D02*
X143070000Y-78089677D01*
X141950000Y-77730000D02*
X137950000Y-77730000D01*
X137950000Y-77730000D02*
X137950000Y-77210000D01*
X137950000Y-77210000D02*
X141950000Y-77210000D01*
X144270000Y-81280000D02*
X144270000Y-82040000D01*
X144270000Y-82040000D02*
X143510000Y-82040000D01*
G04 #@! TO.C,J2*
X156970000Y-77410000D02*
X157770000Y-77410000D01*
X157770000Y-77410000D02*
X157770000Y-81340000D01*
X157770000Y-81340000D02*
X156650000Y-81340000D01*
X156650000Y-81340000D02*
X156650000Y-81264677D01*
X157770000Y-77845000D02*
X161770000Y-77845000D01*
X161770000Y-77845000D02*
X161770000Y-78365000D01*
X161770000Y-78365000D02*
X157770000Y-78365000D01*
X157770000Y-77905000D02*
X161770000Y-77905000D01*
X157770000Y-78025000D02*
X161770000Y-78025000D01*
X157770000Y-78145000D02*
X161770000Y-78145000D01*
X157770000Y-78265000D02*
X161770000Y-78265000D01*
X156970000Y-78740000D02*
X157770000Y-78740000D01*
X157770000Y-79115000D02*
X161770000Y-79115000D01*
X161770000Y-79115000D02*
X161770000Y-79635000D01*
X161770000Y-79635000D02*
X157770000Y-79635000D01*
X156650000Y-80010000D02*
X157770000Y-80010000D01*
X156650000Y-79994677D02*
X156650000Y-80025323D01*
X157770000Y-80385000D02*
X161770000Y-80385000D01*
X161770000Y-80385000D02*
X161770000Y-80905000D01*
X161770000Y-80905000D02*
X157770000Y-80905000D01*
X155450000Y-78105000D02*
X155450000Y-77345000D01*
X155450000Y-77345000D02*
X156210000Y-77345000D01*
G04 #@! TO.C,R1*
X145240000Y-79537779D02*
X145240000Y-79212221D01*
X146260000Y-79537779D02*
X146260000Y-79212221D01*
G04 #@! TO.C,R2*
X154510000Y-81162779D02*
X154510000Y-80837221D01*
X153490000Y-81162779D02*
X153490000Y-80837221D01*
D11*
G04 #@! TO.C,U1*
X152435000Y-77300000D02*
X152385000Y-77300000D01*
X152435000Y-81450000D02*
X152290000Y-81450000D01*
X147285000Y-81450000D02*
X147430000Y-81450000D01*
X147285000Y-77300000D02*
X147430000Y-77300000D01*
X152435000Y-77300000D02*
X152435000Y-81450000D01*
X147285000Y-77300000D02*
X147285000Y-81450000D01*
X152385000Y-77300000D02*
X152385000Y-75900000D01*
G04 #@! TD*
M02*
