G04 #@! TF.GenerationSoftware,KiCad,Pcbnew,5.0.0-rc2-unknown-dd436b6~65~ubuntu18.04.1*
G04 #@! TF.CreationDate,2018-06-24T19:34:44+02:00*
G04 #@! TF.ProjectId,ws2812-lvds-receiver-single,7773323831322D6C7664732D72656365,rev?*
G04 #@! TF.SameCoordinates,Original*
G04 #@! TF.FileFunction,Copper,L2,Bot,Signal*
G04 #@! TF.FilePolarity,Positive*
%FSLAX46Y46*%
G04 Gerber Fmt 4.6, Leading zero omitted, Abs format (unit mm)*
G04 Created by KiCad (PCBNEW 5.0.0-rc2-unknown-dd436b6~65~ubuntu18.04.1) date Sun Jun 24 19:34:44 2018*
%MOMM*%
%LPD*%
G01*
G04 APERTURE LIST*
G04 #@! TA.AperFunction,ComponentPad*
%ADD10R,1.000000X1.000000*%
G04 #@! TD*
G04 #@! TA.AperFunction,ComponentPad*
%ADD11O,1.000000X1.000000*%
G04 #@! TD*
G04 #@! TA.AperFunction,ViaPad*
%ADD12C,0.800000*%
G04 #@! TD*
G04 #@! TA.AperFunction,Conductor*
%ADD13C,0.250000*%
G04 #@! TD*
G04 #@! TA.AperFunction,Conductor*
%ADD14C,0.254000*%
G04 #@! TD*
G04 APERTURE END LIST*
D10*
G04 #@! TO.P,J1,1*
G04 #@! TO.N,+5V*
X143510000Y-81280000D03*
D11*
G04 #@! TO.P,J1,2*
G04 #@! TO.N,Net-(J1-Pad2)*
X143510000Y-80010000D03*
G04 #@! TO.P,J1,3*
G04 #@! TO.N,Net-(J1-Pad3)*
X143510000Y-78740000D03*
G04 #@! TO.P,J1,4*
G04 #@! TO.N,GND*
X143510000Y-77470000D03*
G04 #@! TD*
D10*
G04 #@! TO.P,J2,1*
G04 #@! TO.N,GND*
X156210000Y-78105000D03*
D11*
G04 #@! TO.P,J2,2*
G04 #@! TO.N,Net-(J2-Pad2)*
X156210000Y-79375000D03*
G04 #@! TO.P,J2,3*
G04 #@! TO.N,+5V*
X156210000Y-80645000D03*
G04 #@! TD*
D12*
G04 #@! TO.N,GND*
X150000000Y-78750000D03*
G04 #@! TD*
D13*
G04 #@! TO.N,GND*
X148720000Y-77470000D02*
X143510000Y-77470000D01*
X150000000Y-78750000D02*
X148720000Y-77470000D01*
G04 #@! TD*
D14*
G04 #@! TO.N,GND*
G36*
X157624703Y-75540359D02*
X157645647Y-75554353D01*
X157659641Y-75575297D01*
X157671000Y-75632402D01*
X157671000Y-79123000D01*
X157090025Y-79123000D01*
X157248327Y-78964699D01*
X157345000Y-78731310D01*
X157345000Y-78390750D01*
X157186250Y-78232000D01*
X156337000Y-78232000D01*
X156337000Y-78252000D01*
X156083000Y-78252000D01*
X156083000Y-78232000D01*
X155233750Y-78232000D01*
X155075000Y-78390750D01*
X155075000Y-78731310D01*
X155171673Y-78964699D01*
X155329975Y-79123000D01*
X144191464Y-79123000D01*
X144244178Y-79044107D01*
X144304669Y-78740000D01*
X144244178Y-78435893D01*
X144199684Y-78369302D01*
X144207604Y-78365323D01*
X144497127Y-78030209D01*
X144604119Y-77771874D01*
X144477954Y-77597000D01*
X143637000Y-77597000D01*
X143637000Y-77617000D01*
X143383000Y-77617000D01*
X143383000Y-77597000D01*
X143363000Y-77597000D01*
X143363000Y-77478690D01*
X155075000Y-77478690D01*
X155075000Y-77819250D01*
X155233750Y-77978000D01*
X156083000Y-77978000D01*
X156083000Y-77128750D01*
X156337000Y-77128750D01*
X156337000Y-77978000D01*
X157186250Y-77978000D01*
X157345000Y-77819250D01*
X157345000Y-77478690D01*
X157248327Y-77245301D01*
X157069698Y-77066673D01*
X156836309Y-76970000D01*
X156495750Y-76970000D01*
X156337000Y-77128750D01*
X156083000Y-77128750D01*
X155924250Y-76970000D01*
X155583691Y-76970000D01*
X155350302Y-77066673D01*
X155171673Y-77245301D01*
X155075000Y-77478690D01*
X143363000Y-77478690D01*
X143363000Y-77343000D01*
X143383000Y-77343000D01*
X143383000Y-76500865D01*
X143637000Y-76500865D01*
X143637000Y-77343000D01*
X144477954Y-77343000D01*
X144604119Y-77168126D01*
X144497127Y-76909791D01*
X144207604Y-76574677D01*
X143811877Y-76375868D01*
X143637000Y-76500865D01*
X143383000Y-76500865D01*
X143208123Y-76375868D01*
X142812396Y-76574677D01*
X142729000Y-76671205D01*
X142729000Y-75632401D01*
X142740359Y-75575297D01*
X142754353Y-75554353D01*
X142775297Y-75540359D01*
X142832402Y-75529000D01*
X157567599Y-75529000D01*
X157624703Y-75540359D01*
X157624703Y-75540359D01*
G37*
X157624703Y-75540359D02*
X157645647Y-75554353D01*
X157659641Y-75575297D01*
X157671000Y-75632402D01*
X157671000Y-79123000D01*
X157090025Y-79123000D01*
X157248327Y-78964699D01*
X157345000Y-78731310D01*
X157345000Y-78390750D01*
X157186250Y-78232000D01*
X156337000Y-78232000D01*
X156337000Y-78252000D01*
X156083000Y-78252000D01*
X156083000Y-78232000D01*
X155233750Y-78232000D01*
X155075000Y-78390750D01*
X155075000Y-78731310D01*
X155171673Y-78964699D01*
X155329975Y-79123000D01*
X144191464Y-79123000D01*
X144244178Y-79044107D01*
X144304669Y-78740000D01*
X144244178Y-78435893D01*
X144199684Y-78369302D01*
X144207604Y-78365323D01*
X144497127Y-78030209D01*
X144604119Y-77771874D01*
X144477954Y-77597000D01*
X143637000Y-77597000D01*
X143637000Y-77617000D01*
X143383000Y-77617000D01*
X143383000Y-77597000D01*
X143363000Y-77597000D01*
X143363000Y-77478690D01*
X155075000Y-77478690D01*
X155075000Y-77819250D01*
X155233750Y-77978000D01*
X156083000Y-77978000D01*
X156083000Y-77128750D01*
X156337000Y-77128750D01*
X156337000Y-77978000D01*
X157186250Y-77978000D01*
X157345000Y-77819250D01*
X157345000Y-77478690D01*
X157248327Y-77245301D01*
X157069698Y-77066673D01*
X156836309Y-76970000D01*
X156495750Y-76970000D01*
X156337000Y-77128750D01*
X156083000Y-77128750D01*
X155924250Y-76970000D01*
X155583691Y-76970000D01*
X155350302Y-77066673D01*
X155171673Y-77245301D01*
X155075000Y-77478690D01*
X143363000Y-77478690D01*
X143363000Y-77343000D01*
X143383000Y-77343000D01*
X143383000Y-76500865D01*
X143637000Y-76500865D01*
X143637000Y-77343000D01*
X144477954Y-77343000D01*
X144604119Y-77168126D01*
X144497127Y-76909791D01*
X144207604Y-76574677D01*
X143811877Y-76375868D01*
X143637000Y-76500865D01*
X143383000Y-76500865D01*
X143208123Y-76375868D01*
X142812396Y-76574677D01*
X142729000Y-76671205D01*
X142729000Y-75632401D01*
X142740359Y-75575297D01*
X142754353Y-75554353D01*
X142775297Y-75540359D01*
X142832402Y-75529000D01*
X157567599Y-75529000D01*
X157624703Y-75540359D01*
G04 #@! TO.N,+5V*
G36*
X155475822Y-79679107D02*
X155648084Y-79936916D01*
X155672893Y-79953493D01*
X155646193Y-79968013D01*
X155430039Y-80235305D01*
X155368802Y-80383184D01*
X155434581Y-80518000D01*
X156083000Y-80518000D01*
X156083000Y-80498000D01*
X156337000Y-80498000D01*
X156337000Y-80518000D01*
X156985419Y-80518000D01*
X157051198Y-80383184D01*
X156989961Y-80235305D01*
X156773807Y-79968013D01*
X156747107Y-79953493D01*
X156771916Y-79936916D01*
X156944178Y-79679107D01*
X156954543Y-79627000D01*
X157671001Y-79627000D01*
X157671001Y-82967593D01*
X157659641Y-83024703D01*
X157645647Y-83045647D01*
X157624703Y-83059641D01*
X157567599Y-83071000D01*
X142832402Y-83071000D01*
X142775297Y-83059641D01*
X142754353Y-83045647D01*
X142740359Y-83024703D01*
X142729000Y-82967599D01*
X142729000Y-82037815D01*
X142794180Y-82102996D01*
X142934214Y-82161000D01*
X143287750Y-82161000D01*
X143383000Y-82065750D01*
X143383000Y-81407000D01*
X143637000Y-81407000D01*
X143637000Y-82065750D01*
X143732250Y-82161000D01*
X144085786Y-82161000D01*
X144225820Y-82102996D01*
X144332996Y-81995819D01*
X144391000Y-81855785D01*
X144391000Y-81502250D01*
X144295750Y-81407000D01*
X143637000Y-81407000D01*
X143383000Y-81407000D01*
X143363000Y-81407000D01*
X143363000Y-81153000D01*
X143383000Y-81153000D01*
X143383000Y-81133000D01*
X143637000Y-81133000D01*
X143637000Y-81153000D01*
X144295750Y-81153000D01*
X144391000Y-81057750D01*
X144391000Y-80906816D01*
X155368802Y-80906816D01*
X155430039Y-81054695D01*
X155646193Y-81321987D01*
X155948182Y-81486214D01*
X156083000Y-81421565D01*
X156083000Y-80772000D01*
X156337000Y-80772000D01*
X156337000Y-81421565D01*
X156471818Y-81486214D01*
X156773807Y-81321987D01*
X156989961Y-81054695D01*
X157051198Y-80906816D01*
X156985419Y-80772000D01*
X156337000Y-80772000D01*
X156083000Y-80772000D01*
X155434581Y-80772000D01*
X155368802Y-80906816D01*
X144391000Y-80906816D01*
X144391000Y-80704215D01*
X144332996Y-80564181D01*
X144225820Y-80457004D01*
X144165416Y-80431984D01*
X144244178Y-80314107D01*
X144304669Y-80010000D01*
X144244178Y-79705893D01*
X144191464Y-79627000D01*
X155465457Y-79627000D01*
X155475822Y-79679107D01*
X155475822Y-79679107D01*
G37*
X155475822Y-79679107D02*
X155648084Y-79936916D01*
X155672893Y-79953493D01*
X155646193Y-79968013D01*
X155430039Y-80235305D01*
X155368802Y-80383184D01*
X155434581Y-80518000D01*
X156083000Y-80518000D01*
X156083000Y-80498000D01*
X156337000Y-80498000D01*
X156337000Y-80518000D01*
X156985419Y-80518000D01*
X157051198Y-80383184D01*
X156989961Y-80235305D01*
X156773807Y-79968013D01*
X156747107Y-79953493D01*
X156771916Y-79936916D01*
X156944178Y-79679107D01*
X156954543Y-79627000D01*
X157671001Y-79627000D01*
X157671001Y-82967593D01*
X157659641Y-83024703D01*
X157645647Y-83045647D01*
X157624703Y-83059641D01*
X157567599Y-83071000D01*
X142832402Y-83071000D01*
X142775297Y-83059641D01*
X142754353Y-83045647D01*
X142740359Y-83024703D01*
X142729000Y-82967599D01*
X142729000Y-82037815D01*
X142794180Y-82102996D01*
X142934214Y-82161000D01*
X143287750Y-82161000D01*
X143383000Y-82065750D01*
X143383000Y-81407000D01*
X143637000Y-81407000D01*
X143637000Y-82065750D01*
X143732250Y-82161000D01*
X144085786Y-82161000D01*
X144225820Y-82102996D01*
X144332996Y-81995819D01*
X144391000Y-81855785D01*
X144391000Y-81502250D01*
X144295750Y-81407000D01*
X143637000Y-81407000D01*
X143383000Y-81407000D01*
X143363000Y-81407000D01*
X143363000Y-81153000D01*
X143383000Y-81153000D01*
X143383000Y-81133000D01*
X143637000Y-81133000D01*
X143637000Y-81153000D01*
X144295750Y-81153000D01*
X144391000Y-81057750D01*
X144391000Y-80906816D01*
X155368802Y-80906816D01*
X155430039Y-81054695D01*
X155646193Y-81321987D01*
X155948182Y-81486214D01*
X156083000Y-81421565D01*
X156083000Y-80772000D01*
X156337000Y-80772000D01*
X156337000Y-81421565D01*
X156471818Y-81486214D01*
X156773807Y-81321987D01*
X156989961Y-81054695D01*
X157051198Y-80906816D01*
X156985419Y-80772000D01*
X156337000Y-80772000D01*
X156083000Y-80772000D01*
X155434581Y-80772000D01*
X155368802Y-80906816D01*
X144391000Y-80906816D01*
X144391000Y-80704215D01*
X144332996Y-80564181D01*
X144225820Y-80457004D01*
X144165416Y-80431984D01*
X144244178Y-80314107D01*
X144304669Y-80010000D01*
X144244178Y-79705893D01*
X144191464Y-79627000D01*
X155465457Y-79627000D01*
X155475822Y-79679107D01*
G04 #@! TD*
M02*
