G04 #@! TF.GenerationSoftware,KiCad,Pcbnew,5.0.0-rc2-unknown-dd436b6~65~ubuntu18.04.1*
G04 #@! TF.CreationDate,2018-06-24T19:34:44+02:00*
G04 #@! TF.ProjectId,ws2812-lvds-receiver-single,7773323831322D6C7664732D72656365,rev?*
G04 #@! TF.SameCoordinates,Original*
G04 #@! TF.FileFunction,Soldermask,Top*
G04 #@! TF.FilePolarity,Negative*
%FSLAX46Y46*%
G04 Gerber Fmt 4.6, Leading zero omitted, Abs format (unit mm)*
G04 Created by KiCad (PCBNEW 5.0.0-rc2-unknown-dd436b6~65~ubuntu18.04.1) date Sun Jun 24 19:34:44 2018*
%MOMM*%
%LPD*%
G01*
G04 APERTURE LIST*
%ADD10C,0.100000*%
%ADD11C,0.976600*%
%ADD12R,1.101600X1.101600*%
%ADD13O,1.101600X1.101600*%
%ADD14R,0.701600X1.651600*%
G04 APERTURE END LIST*
D10*
G04 #@! TO.C,C1*
G36*
X154305581Y-77800376D02*
X154329281Y-77803891D01*
X154352523Y-77809713D01*
X154375082Y-77817785D01*
X154396742Y-77828029D01*
X154417292Y-77840347D01*
X154436537Y-77854619D01*
X154454290Y-77870710D01*
X154470381Y-77888463D01*
X154484653Y-77907708D01*
X154496971Y-77928258D01*
X154507215Y-77949918D01*
X154515287Y-77972477D01*
X154521109Y-77995719D01*
X154524624Y-78019419D01*
X154525800Y-78043350D01*
X154525800Y-78531650D01*
X154524624Y-78555581D01*
X154521109Y-78579281D01*
X154515287Y-78602523D01*
X154507215Y-78625082D01*
X154496971Y-78646742D01*
X154484653Y-78667292D01*
X154470381Y-78686537D01*
X154454290Y-78704290D01*
X154436537Y-78720381D01*
X154417292Y-78734653D01*
X154396742Y-78746971D01*
X154375082Y-78757215D01*
X154352523Y-78765287D01*
X154329281Y-78771109D01*
X154305581Y-78774624D01*
X154281650Y-78775800D01*
X153718350Y-78775800D01*
X153694419Y-78774624D01*
X153670719Y-78771109D01*
X153647477Y-78765287D01*
X153624918Y-78757215D01*
X153603258Y-78746971D01*
X153582708Y-78734653D01*
X153563463Y-78720381D01*
X153545710Y-78704290D01*
X153529619Y-78686537D01*
X153515347Y-78667292D01*
X153503029Y-78646742D01*
X153492785Y-78625082D01*
X153484713Y-78602523D01*
X153478891Y-78579281D01*
X153475376Y-78555581D01*
X153474200Y-78531650D01*
X153474200Y-78043350D01*
X153475376Y-78019419D01*
X153478891Y-77995719D01*
X153484713Y-77972477D01*
X153492785Y-77949918D01*
X153503029Y-77928258D01*
X153515347Y-77907708D01*
X153529619Y-77888463D01*
X153545710Y-77870710D01*
X153563463Y-77854619D01*
X153582708Y-77840347D01*
X153603258Y-77828029D01*
X153624918Y-77817785D01*
X153647477Y-77809713D01*
X153670719Y-77803891D01*
X153694419Y-77800376D01*
X153718350Y-77799200D01*
X154281650Y-77799200D01*
X154305581Y-77800376D01*
X154305581Y-77800376D01*
G37*
D11*
X154000000Y-78287500D03*
D10*
G36*
X154305581Y-76225376D02*
X154329281Y-76228891D01*
X154352523Y-76234713D01*
X154375082Y-76242785D01*
X154396742Y-76253029D01*
X154417292Y-76265347D01*
X154436537Y-76279619D01*
X154454290Y-76295710D01*
X154470381Y-76313463D01*
X154484653Y-76332708D01*
X154496971Y-76353258D01*
X154507215Y-76374918D01*
X154515287Y-76397477D01*
X154521109Y-76420719D01*
X154524624Y-76444419D01*
X154525800Y-76468350D01*
X154525800Y-76956650D01*
X154524624Y-76980581D01*
X154521109Y-77004281D01*
X154515287Y-77027523D01*
X154507215Y-77050082D01*
X154496971Y-77071742D01*
X154484653Y-77092292D01*
X154470381Y-77111537D01*
X154454290Y-77129290D01*
X154436537Y-77145381D01*
X154417292Y-77159653D01*
X154396742Y-77171971D01*
X154375082Y-77182215D01*
X154352523Y-77190287D01*
X154329281Y-77196109D01*
X154305581Y-77199624D01*
X154281650Y-77200800D01*
X153718350Y-77200800D01*
X153694419Y-77199624D01*
X153670719Y-77196109D01*
X153647477Y-77190287D01*
X153624918Y-77182215D01*
X153603258Y-77171971D01*
X153582708Y-77159653D01*
X153563463Y-77145381D01*
X153545710Y-77129290D01*
X153529619Y-77111537D01*
X153515347Y-77092292D01*
X153503029Y-77071742D01*
X153492785Y-77050082D01*
X153484713Y-77027523D01*
X153478891Y-77004281D01*
X153475376Y-76980581D01*
X153474200Y-76956650D01*
X153474200Y-76468350D01*
X153475376Y-76444419D01*
X153478891Y-76420719D01*
X153484713Y-76397477D01*
X153492785Y-76374918D01*
X153503029Y-76353258D01*
X153515347Y-76332708D01*
X153529619Y-76313463D01*
X153545710Y-76295710D01*
X153563463Y-76279619D01*
X153582708Y-76265347D01*
X153603258Y-76253029D01*
X153624918Y-76242785D01*
X153647477Y-76234713D01*
X153670719Y-76228891D01*
X153694419Y-76225376D01*
X153718350Y-76224200D01*
X154281650Y-76224200D01*
X154305581Y-76225376D01*
X154305581Y-76225376D01*
G37*
D11*
X154000000Y-76712500D03*
G04 #@! TD*
D12*
G04 #@! TO.C,J1*
X143510000Y-81280000D03*
D13*
X143510000Y-80010000D03*
X143510000Y-78740000D03*
X143510000Y-77470000D03*
G04 #@! TD*
D12*
G04 #@! TO.C,J2*
X156210000Y-78105000D03*
D13*
X156210000Y-79375000D03*
X156210000Y-80645000D03*
G04 #@! TD*
D10*
G04 #@! TO.C,R1*
G36*
X146055581Y-79675376D02*
X146079281Y-79678891D01*
X146102523Y-79684713D01*
X146125082Y-79692785D01*
X146146742Y-79703029D01*
X146167292Y-79715347D01*
X146186537Y-79729619D01*
X146204290Y-79745710D01*
X146220381Y-79763463D01*
X146234653Y-79782708D01*
X146246971Y-79803258D01*
X146257215Y-79824918D01*
X146265287Y-79847477D01*
X146271109Y-79870719D01*
X146274624Y-79894419D01*
X146275800Y-79918350D01*
X146275800Y-80406650D01*
X146274624Y-80430581D01*
X146271109Y-80454281D01*
X146265287Y-80477523D01*
X146257215Y-80500082D01*
X146246971Y-80521742D01*
X146234653Y-80542292D01*
X146220381Y-80561537D01*
X146204290Y-80579290D01*
X146186537Y-80595381D01*
X146167292Y-80609653D01*
X146146742Y-80621971D01*
X146125082Y-80632215D01*
X146102523Y-80640287D01*
X146079281Y-80646109D01*
X146055581Y-80649624D01*
X146031650Y-80650800D01*
X145468350Y-80650800D01*
X145444419Y-80649624D01*
X145420719Y-80646109D01*
X145397477Y-80640287D01*
X145374918Y-80632215D01*
X145353258Y-80621971D01*
X145332708Y-80609653D01*
X145313463Y-80595381D01*
X145295710Y-80579290D01*
X145279619Y-80561537D01*
X145265347Y-80542292D01*
X145253029Y-80521742D01*
X145242785Y-80500082D01*
X145234713Y-80477523D01*
X145228891Y-80454281D01*
X145225376Y-80430581D01*
X145224200Y-80406650D01*
X145224200Y-79918350D01*
X145225376Y-79894419D01*
X145228891Y-79870719D01*
X145234713Y-79847477D01*
X145242785Y-79824918D01*
X145253029Y-79803258D01*
X145265347Y-79782708D01*
X145279619Y-79763463D01*
X145295710Y-79745710D01*
X145313463Y-79729619D01*
X145332708Y-79715347D01*
X145353258Y-79703029D01*
X145374918Y-79692785D01*
X145397477Y-79684713D01*
X145420719Y-79678891D01*
X145444419Y-79675376D01*
X145468350Y-79674200D01*
X146031650Y-79674200D01*
X146055581Y-79675376D01*
X146055581Y-79675376D01*
G37*
D11*
X145750000Y-80162500D03*
D10*
G36*
X146055581Y-78100376D02*
X146079281Y-78103891D01*
X146102523Y-78109713D01*
X146125082Y-78117785D01*
X146146742Y-78128029D01*
X146167292Y-78140347D01*
X146186537Y-78154619D01*
X146204290Y-78170710D01*
X146220381Y-78188463D01*
X146234653Y-78207708D01*
X146246971Y-78228258D01*
X146257215Y-78249918D01*
X146265287Y-78272477D01*
X146271109Y-78295719D01*
X146274624Y-78319419D01*
X146275800Y-78343350D01*
X146275800Y-78831650D01*
X146274624Y-78855581D01*
X146271109Y-78879281D01*
X146265287Y-78902523D01*
X146257215Y-78925082D01*
X146246971Y-78946742D01*
X146234653Y-78967292D01*
X146220381Y-78986537D01*
X146204290Y-79004290D01*
X146186537Y-79020381D01*
X146167292Y-79034653D01*
X146146742Y-79046971D01*
X146125082Y-79057215D01*
X146102523Y-79065287D01*
X146079281Y-79071109D01*
X146055581Y-79074624D01*
X146031650Y-79075800D01*
X145468350Y-79075800D01*
X145444419Y-79074624D01*
X145420719Y-79071109D01*
X145397477Y-79065287D01*
X145374918Y-79057215D01*
X145353258Y-79046971D01*
X145332708Y-79034653D01*
X145313463Y-79020381D01*
X145295710Y-79004290D01*
X145279619Y-78986537D01*
X145265347Y-78967292D01*
X145253029Y-78946742D01*
X145242785Y-78925082D01*
X145234713Y-78902523D01*
X145228891Y-78879281D01*
X145225376Y-78855581D01*
X145224200Y-78831650D01*
X145224200Y-78343350D01*
X145225376Y-78319419D01*
X145228891Y-78295719D01*
X145234713Y-78272477D01*
X145242785Y-78249918D01*
X145253029Y-78228258D01*
X145265347Y-78207708D01*
X145279619Y-78188463D01*
X145295710Y-78170710D01*
X145313463Y-78154619D01*
X145332708Y-78140347D01*
X145353258Y-78128029D01*
X145374918Y-78117785D01*
X145397477Y-78109713D01*
X145420719Y-78103891D01*
X145444419Y-78100376D01*
X145468350Y-78099200D01*
X146031650Y-78099200D01*
X146055581Y-78100376D01*
X146055581Y-78100376D01*
G37*
D11*
X145750000Y-78587500D03*
G04 #@! TD*
D10*
G04 #@! TO.C,R2*
G36*
X154305581Y-79725376D02*
X154329281Y-79728891D01*
X154352523Y-79734713D01*
X154375082Y-79742785D01*
X154396742Y-79753029D01*
X154417292Y-79765347D01*
X154436537Y-79779619D01*
X154454290Y-79795710D01*
X154470381Y-79813463D01*
X154484653Y-79832708D01*
X154496971Y-79853258D01*
X154507215Y-79874918D01*
X154515287Y-79897477D01*
X154521109Y-79920719D01*
X154524624Y-79944419D01*
X154525800Y-79968350D01*
X154525800Y-80456650D01*
X154524624Y-80480581D01*
X154521109Y-80504281D01*
X154515287Y-80527523D01*
X154507215Y-80550082D01*
X154496971Y-80571742D01*
X154484653Y-80592292D01*
X154470381Y-80611537D01*
X154454290Y-80629290D01*
X154436537Y-80645381D01*
X154417292Y-80659653D01*
X154396742Y-80671971D01*
X154375082Y-80682215D01*
X154352523Y-80690287D01*
X154329281Y-80696109D01*
X154305581Y-80699624D01*
X154281650Y-80700800D01*
X153718350Y-80700800D01*
X153694419Y-80699624D01*
X153670719Y-80696109D01*
X153647477Y-80690287D01*
X153624918Y-80682215D01*
X153603258Y-80671971D01*
X153582708Y-80659653D01*
X153563463Y-80645381D01*
X153545710Y-80629290D01*
X153529619Y-80611537D01*
X153515347Y-80592292D01*
X153503029Y-80571742D01*
X153492785Y-80550082D01*
X153484713Y-80527523D01*
X153478891Y-80504281D01*
X153475376Y-80480581D01*
X153474200Y-80456650D01*
X153474200Y-79968350D01*
X153475376Y-79944419D01*
X153478891Y-79920719D01*
X153484713Y-79897477D01*
X153492785Y-79874918D01*
X153503029Y-79853258D01*
X153515347Y-79832708D01*
X153529619Y-79813463D01*
X153545710Y-79795710D01*
X153563463Y-79779619D01*
X153582708Y-79765347D01*
X153603258Y-79753029D01*
X153624918Y-79742785D01*
X153647477Y-79734713D01*
X153670719Y-79728891D01*
X153694419Y-79725376D01*
X153718350Y-79724200D01*
X154281650Y-79724200D01*
X154305581Y-79725376D01*
X154305581Y-79725376D01*
G37*
D11*
X154000000Y-80212500D03*
D10*
G36*
X154305581Y-81300376D02*
X154329281Y-81303891D01*
X154352523Y-81309713D01*
X154375082Y-81317785D01*
X154396742Y-81328029D01*
X154417292Y-81340347D01*
X154436537Y-81354619D01*
X154454290Y-81370710D01*
X154470381Y-81388463D01*
X154484653Y-81407708D01*
X154496971Y-81428258D01*
X154507215Y-81449918D01*
X154515287Y-81472477D01*
X154521109Y-81495719D01*
X154524624Y-81519419D01*
X154525800Y-81543350D01*
X154525800Y-82031650D01*
X154524624Y-82055581D01*
X154521109Y-82079281D01*
X154515287Y-82102523D01*
X154507215Y-82125082D01*
X154496971Y-82146742D01*
X154484653Y-82167292D01*
X154470381Y-82186537D01*
X154454290Y-82204290D01*
X154436537Y-82220381D01*
X154417292Y-82234653D01*
X154396742Y-82246971D01*
X154375082Y-82257215D01*
X154352523Y-82265287D01*
X154329281Y-82271109D01*
X154305581Y-82274624D01*
X154281650Y-82275800D01*
X153718350Y-82275800D01*
X153694419Y-82274624D01*
X153670719Y-82271109D01*
X153647477Y-82265287D01*
X153624918Y-82257215D01*
X153603258Y-82246971D01*
X153582708Y-82234653D01*
X153563463Y-82220381D01*
X153545710Y-82204290D01*
X153529619Y-82186537D01*
X153515347Y-82167292D01*
X153503029Y-82146742D01*
X153492785Y-82125082D01*
X153484713Y-82102523D01*
X153478891Y-82079281D01*
X153475376Y-82055581D01*
X153474200Y-82031650D01*
X153474200Y-81543350D01*
X153475376Y-81519419D01*
X153478891Y-81495719D01*
X153484713Y-81472477D01*
X153492785Y-81449918D01*
X153503029Y-81428258D01*
X153515347Y-81407708D01*
X153529619Y-81388463D01*
X153545710Y-81370710D01*
X153563463Y-81354619D01*
X153582708Y-81340347D01*
X153603258Y-81328029D01*
X153624918Y-81317785D01*
X153647477Y-81309713D01*
X153670719Y-81303891D01*
X153694419Y-81300376D01*
X153718350Y-81299200D01*
X154281650Y-81299200D01*
X154305581Y-81300376D01*
X154305581Y-81300376D01*
G37*
D11*
X154000000Y-81787500D03*
G04 #@! TD*
D14*
G04 #@! TO.C,U1*
X151765000Y-76675000D03*
X150495000Y-76675000D03*
X149225000Y-76675000D03*
X147955000Y-76675000D03*
X147955000Y-82075000D03*
X149225000Y-82075000D03*
X150495000Y-82075000D03*
X151765000Y-82075000D03*
G04 #@! TD*
M02*
